<svg width="903" height="143" viewBox="0 0 903 143" fill="none" xmlns="http://www.w3.org/2000/svg">
<rect x="314" width="70" height="143" fill="black"/>
<rect x="526" width="70" height="143" fill="#0502FD"/>
<rect x="420" width="70" height="143" fill="#E61F02"/>
<g filter="url(#filter0_d_1_9)">
<path d="M140.951 43.2949C143.209 43.2949 145.245 43.6159 147.061 44.2578C148.898 44.8997 150.458 45.7962 151.742 46.9473C153.048 48.0983 154.044 49.4486 154.73 50.998C155.417 52.5254 155.76 54.1855 155.76 55.9785C155.76 57.5501 155.583 58.9336 155.229 60.1289C154.896 61.3021 154.387 62.3314 153.701 63.2168C153.037 64.1022 152.218 64.8548 151.244 65.4746C150.292 66.0723 149.208 66.5814 147.99 67.002C150.934 67.9316 153.126 69.3483 154.564 71.252C156.025 73.1556 156.756 75.5462 156.756 78.4238C156.756 80.8587 156.302 83.0169 155.395 84.8984C154.487 86.7799 153.258 88.3626 151.709 89.6465C150.182 90.9303 148.4 91.9043 146.363 92.5684C144.349 93.2103 142.202 93.5312 139.922 93.5312C137.465 93.5312 135.318 93.2546 133.48 92.7012C131.643 92.1257 130.038 91.2845 128.666 90.1777C127.316 89.071 126.165 87.7096 125.213 86.0938C124.261 84.4779 123.442 82.6185 122.756 80.5156L126.475 78.9883C127.094 78.7227 127.736 78.5898 128.4 78.5898C128.998 78.5898 129.529 78.7116 129.994 78.9551C130.459 79.1986 130.813 79.5638 131.057 80.0508C131.455 80.8477 131.898 81.6335 132.385 82.4082C132.872 83.1608 133.458 83.847 134.145 84.4668C134.831 85.0645 135.628 85.5514 136.535 85.9277C137.465 86.2819 138.561 86.459 139.822 86.459C141.261 86.459 142.512 86.2266 143.574 85.7617C144.637 85.2969 145.522 84.6992 146.23 83.9688C146.939 83.2161 147.47 82.3861 147.824 81.4785C148.178 80.5488 148.355 79.6191 148.355 78.6895C148.355 77.5163 148.234 76.4538 147.99 75.502C147.747 74.528 147.227 73.6979 146.43 73.0117C145.633 72.3255 144.493 71.7943 143.01 71.418C141.527 71.0195 139.535 70.8203 137.033 70.8203V64.8438C139.092 64.8216 140.796 64.6335 142.146 64.2793C143.519 63.903 144.604 63.3939 145.4 62.752C146.219 62.11 146.784 61.3353 147.094 60.4277C147.426 59.5202 147.592 58.5241 147.592 57.4395C147.592 55.0931 146.95 53.3333 145.666 52.1602C144.404 50.9648 142.678 50.3672 140.486 50.3672C138.472 50.3672 136.812 50.8984 135.506 51.9609C134.2 53.0013 133.281 54.3516 132.75 56.0117C132.484 56.875 132.108 57.4948 131.621 57.8711C131.156 58.2474 130.536 58.4355 129.762 58.4355C129.408 58.4355 129.02 58.4023 128.6 58.3359L124.184 57.5391C124.516 55.1706 125.169 53.1009 126.143 51.3301C127.117 49.5592 128.334 48.0762 129.795 46.8809C131.278 45.6855 132.96 44.7891 134.842 44.1914C136.745 43.5938 138.782 43.2949 140.951 43.2949ZM198.435 44.448C204.691 44.448 209.247 45.808 212.103 48.528C215.004 51.2027 216.455 54.8973 216.455 59.612C216.455 61.7427 216.137 63.7827 215.503 65.732C214.868 67.636 213.803 69.3587 212.307 70.9C210.856 72.396 208.929 73.5747 206.527 74.436C204.124 75.2973 201.155 75.728 197.619 75.728H193.199V93H182.931V44.448H198.435ZM197.891 52.88H193.199V67.296H196.599C198.548 67.296 200.225 67.0467 201.631 66.548C203.036 66.0493 204.124 65.256 204.895 64.168C205.665 63.08 206.051 61.6747 206.051 59.952C206.051 57.5493 205.393 55.7813 204.079 54.648C202.764 53.4693 200.701 52.88 197.891 52.88ZM234.946 51.86C234.946 53.6733 234.878 55.4187 234.742 57.096C234.651 58.7733 234.56 59.952 234.47 60.632H235.014C235.83 59.3627 236.782 58.3427 237.87 57.572C238.958 56.756 240.159 56.1667 241.474 55.804C242.834 55.396 244.262 55.192 245.758 55.192C248.432 55.192 250.767 55.668 252.762 56.62C254.756 57.572 256.298 59.0453 257.386 61.04C258.519 63.0347 259.086 65.6187 259.086 68.792V93H248.954V71.308C248.954 68.6333 248.455 66.6387 247.458 65.324C246.506 63.964 245.01 63.284 242.97 63.284C240.93 63.284 239.32 63.76 238.142 64.712C237.008 65.664 236.192 67.0467 235.694 68.86C235.195 70.6733 234.946 72.8947 234.946 75.524V93H224.814V41.32H234.946V51.86ZM284.737 55.124C289.724 55.124 293.532 56.212 296.161 58.388C298.836 60.5187 300.173 63.8053 300.173 68.248V93H293.101L291.129 87.968H290.857C289.815 89.2827 288.727 90.3707 287.593 91.232C286.505 92.0933 285.236 92.7053 283.785 93.068C282.38 93.476 280.635 93.68 278.549 93.68C276.373 93.68 274.401 93.272 272.633 92.456C270.911 91.5947 269.551 90.3027 268.553 88.58C267.556 86.812 267.057 84.5907 267.057 81.916C267.057 77.972 268.44 75.0707 271.205 73.212C273.971 71.308 278.119 70.2653 283.649 70.084L290.109 69.88V68.248C290.109 66.2987 289.588 64.8707 288.545 63.964C287.548 63.0573 286.143 62.604 284.329 62.604C282.516 62.604 280.748 62.876 279.025 63.42C277.303 63.9187 275.58 64.5533 273.857 65.324L270.525 58.456C272.52 57.4133 274.719 56.5973 277.121 56.008C279.569 55.4187 282.108 55.124 284.737 55.124ZM286.165 75.932C282.901 76.0227 280.635 76.612 279.365 77.7C278.096 78.788 277.461 80.216 277.461 81.984C277.461 83.5253 277.915 84.636 278.821 85.316C279.728 85.9507 280.907 86.268 282.357 86.268C284.533 86.268 286.369 85.6333 287.865 84.364C289.361 83.0493 290.109 81.2133 290.109 78.856V75.796L286.165 75.932ZM336.452 81.984C336.452 84.4773 335.863 86.608 334.684 88.376C333.506 90.0987 331.738 91.4133 329.38 92.32C327.023 93.2267 324.099 93.68 320.608 93.68C318.024 93.68 315.803 93.4987 313.944 93.136C312.086 92.8187 310.227 92.2747 308.368 91.504V83.14C310.363 84.0467 312.516 84.7947 314.828 85.384C317.14 85.9733 319.18 86.268 320.948 86.268C322.943 86.268 324.348 85.9733 325.164 85.384C326.026 84.7947 326.456 84.024 326.456 83.072C326.456 82.4373 326.275 81.8707 325.912 81.372C325.595 80.8733 324.87 80.3067 323.736 79.672C322.603 79.0373 320.835 78.2213 318.432 77.224C316.12 76.2267 314.216 75.252 312.72 74.3C311.224 73.3027 310.114 72.124 309.388 70.764C308.663 69.3587 308.3 67.6133 308.3 65.528C308.3 62.0827 309.638 59.4987 312.312 57.776C314.987 56.0533 318.546 55.192 322.988 55.192C325.3 55.192 327.499 55.4187 329.584 55.872C331.67 56.3253 333.823 57.0733 336.044 58.116L332.984 65.392C331.76 64.848 330.582 64.372 329.448 63.964C328.315 63.556 327.204 63.2387 326.116 63.012C325.074 62.7853 323.986 62.672 322.852 62.672C321.356 62.672 320.223 62.876 319.452 63.284C318.727 63.692 318.364 64.304 318.364 65.12C318.364 65.7093 318.546 66.2533 318.908 66.752C319.316 67.2053 320.064 67.704 321.152 68.248C322.286 68.792 323.94 69.5173 326.116 70.424C328.247 71.2853 330.083 72.192 331.624 73.144C333.166 74.0507 334.344 75.2067 335.16 76.612C336.022 77.972 336.452 79.7627 336.452 81.984ZM359.645 55.192C363.09 55.192 366.037 55.8493 368.485 57.164C370.978 58.4787 372.905 60.3827 374.265 62.876C375.625 65.3693 376.305 68.4293 376.305 72.056V76.952H352.369C352.46 79.808 353.298 82.052 354.885 83.684C356.517 85.316 358.761 86.132 361.617 86.132C364.02 86.132 366.196 85.9053 368.145 85.452C370.094 84.9533 372.112 84.2053 374.197 83.208V91.028C372.384 91.9347 370.457 92.592 368.417 93C366.422 93.4533 363.997 93.68 361.141 93.68C357.424 93.68 354.137 93 351.281 91.64C348.425 90.2347 346.181 88.1267 344.549 85.316C342.917 82.5053 342.101 78.9693 342.101 74.708C342.101 70.356 342.826 66.752 344.277 63.896C345.773 60.9947 347.836 58.8187 350.465 57.368C353.094 55.9173 356.154 55.192 359.645 55.192ZM359.713 62.4C357.764 62.4 356.132 63.0347 354.817 64.304C353.548 65.5733 352.8 67.5453 352.573 70.22H366.785C366.785 68.724 366.513 67.3867 365.969 66.208C365.47 65.0293 364.7 64.1 363.657 63.42C362.614 62.74 361.3 62.4 359.713 62.4ZM430.949 93H403.001V44.448H430.949V52.88H413.269V63.556H429.725V71.988H413.269V84.5H430.949V93ZM450.368 93H440.236V41.32H450.368V93ZM476.254 55.192C479.7 55.192 482.646 55.8493 485.094 57.164C487.588 58.4787 489.514 60.3827 490.874 62.876C492.234 65.3693 492.914 68.4293 492.914 72.056V76.952H468.978C469.069 79.808 469.908 82.052 471.494 83.684C473.126 85.316 475.37 86.132 478.226 86.132C480.629 86.132 482.805 85.9053 484.754 85.452C486.704 84.9533 488.721 84.2053 490.806 83.208V91.028C488.993 91.9347 487.066 92.592 485.026 93C483.032 93.4533 480.606 93.68 477.75 93.68C474.033 93.68 470.746 93 467.89 91.64C465.034 90.2347 462.79 88.1267 461.158 85.316C459.526 82.5053 458.71 78.9693 458.71 74.708C458.71 70.356 459.436 66.752 460.886 63.896C462.382 60.9947 464.445 58.8187 467.074 57.368C469.704 55.9173 472.764 55.192 476.254 55.192ZM476.322 62.4C474.373 62.4 472.741 63.0347 471.426 64.304C470.157 65.5733 469.409 67.5453 469.182 70.22H483.394C483.394 68.724 483.122 67.3867 482.578 66.208C482.08 65.0293 481.309 64.1 480.266 63.42C479.224 62.74 477.909 62.4 476.322 62.4ZM516.226 93.68C512.554 93.68 509.426 93.0227 506.842 91.708C504.258 90.348 502.286 88.2627 500.926 85.452C499.566 82.6413 498.886 79.0373 498.886 74.64C498.886 70.1067 499.657 66.412 501.198 63.556C502.74 60.7 504.87 58.592 507.59 57.232C510.356 55.872 513.529 55.192 517.11 55.192C519.649 55.192 521.848 55.4413 523.706 55.94C525.61 56.4387 527.265 57.028 528.67 57.708L525.678 65.528C524.092 64.8933 522.596 64.372 521.19 63.964C519.83 63.556 518.47 63.352 517.11 63.352C515.342 63.352 513.869 63.7827 512.69 64.644C511.512 65.46 510.628 66.7067 510.038 68.384C509.494 70.016 509.222 72.0787 509.222 74.572C509.222 77.02 509.517 79.06 510.106 80.692C510.741 82.2787 511.648 83.48 512.826 84.296C514.005 85.0667 515.433 85.452 517.11 85.452C519.241 85.452 521.122 85.18 522.754 84.636C524.386 84.0467 525.973 83.2533 527.514 82.256V90.892C525.973 91.8893 524.341 92.592 522.618 93C520.941 93.4533 518.81 93.68 516.226 93.68ZM551.7 85.588C552.833 85.588 553.921 85.4747 554.964 85.248C556.007 85.0213 557.049 84.7493 558.092 84.432V91.98C557.004 92.4333 555.644 92.8187 554.012 93.136C552.425 93.4987 550.68 93.68 548.776 93.68C546.555 93.68 544.56 93.3173 542.792 92.592C541.069 91.8667 539.687 90.62 538.644 88.852C537.647 87.0387 537.148 84.5453 537.148 81.372V63.488H532.32V59.204L537.896 55.804L540.82 47.984H547.28V55.872H557.684V63.488H547.28V81.372C547.28 82.7773 547.688 83.8427 548.504 84.568C549.32 85.248 550.385 85.588 551.7 85.588ZM586.284 55.192C586.783 55.192 587.372 55.2147 588.052 55.26C588.732 55.3053 589.276 55.3733 589.684 55.464L588.936 64.984C588.619 64.8933 588.143 64.8253 587.508 64.78C586.919 64.6893 586.398 64.644 585.944 64.644C584.63 64.644 583.36 64.8253 582.136 65.188C580.912 65.5053 579.802 66.0267 578.804 66.752C577.852 67.4773 577.082 68.452 576.492 69.676C575.948 70.8547 575.676 72.328 575.676 74.096V93H565.544V55.872H573.228L574.724 62.128H575.2C575.926 60.8587 576.832 59.7027 577.92 58.66C579.008 57.6173 580.255 56.7787 581.66 56.144C583.111 55.5093 584.652 55.192 586.284 55.192ZM606.555 55.872V93H596.423V55.872H606.555ZM601.523 41.32C603.019 41.32 604.311 41.6827 605.399 42.408C606.487 43.088 607.031 44.38 607.031 46.284C607.031 48.1427 606.487 49.4347 605.399 50.16C604.311 50.8853 603.019 51.248 601.523 51.248C599.982 51.248 598.667 50.8853 597.579 50.16C596.536 49.4347 596.015 48.1427 596.015 46.284C596.015 44.38 596.536 43.088 597.579 42.408C598.667 41.6827 599.982 41.32 601.523 41.32ZM632.238 93.68C628.566 93.68 625.438 93.0227 622.854 91.708C620.27 90.348 618.298 88.2627 616.938 85.452C615.578 82.6413 614.898 79.0373 614.898 74.64C614.898 70.1067 615.669 66.412 617.21 63.556C618.751 60.7 620.882 58.592 623.602 57.232C626.367 55.872 629.541 55.192 633.122 55.192C635.661 55.192 637.859 55.4413 639.718 55.94C641.622 56.4387 643.277 57.028 644.682 57.708L641.69 65.528C640.103 64.8933 638.607 64.372 637.202 63.964C635.842 63.556 634.482 63.352 633.122 63.352C631.354 63.352 629.881 63.7827 628.702 64.644C627.523 65.46 626.639 66.7067 626.05 68.384C625.506 70.016 625.234 72.0787 625.234 74.572C625.234 77.02 625.529 79.06 626.118 80.692C626.753 82.2787 627.659 83.48 628.838 84.296C630.017 85.0667 631.445 85.452 633.122 85.452C635.253 85.452 637.134 85.18 638.766 84.636C640.398 84.0467 641.985 83.2533 643.526 82.256V90.892C641.985 91.8893 640.353 92.592 638.63 93C636.953 93.4533 634.822 93.68 632.238 93.68ZM670.552 93V44.448H680.82V84.5H700.54V93H670.552ZM709.001 93V44.448H719.269V84.5H738.989V93H709.001ZM766.726 52.336C764.777 52.336 763.031 52.7213 761.49 53.492C759.994 54.2627 758.725 55.3733 757.682 56.824C756.639 58.2293 755.846 59.952 755.302 61.992C754.803 64.032 754.554 66.3213 754.554 68.86C754.554 72.3053 754.962 75.252 755.778 77.7C756.639 80.1027 757.977 81.9387 759.79 83.208C761.603 84.4773 763.915 85.112 766.726 85.112C768.721 85.112 770.693 84.8853 772.642 84.432C774.637 83.9787 776.79 83.344 779.102 82.528V91.164C776.971 92.0253 774.863 92.66 772.778 93.068C770.693 93.476 768.358 93.68 765.774 93.68C760.787 93.68 756.662 92.66 753.398 90.62C750.179 88.5347 747.799 85.6333 746.258 81.916C744.717 78.1533 743.946 73.7787 743.946 68.792C743.946 65.12 744.445 61.7653 745.442 58.728C746.439 55.6453 747.89 52.9933 749.794 50.772C751.743 48.5507 754.123 46.828 756.934 45.604C759.79 44.38 763.054 43.768 766.726 43.768C769.129 43.768 771.531 44.0853 773.934 44.72C776.382 45.3093 778.717 46.1253 780.938 47.168L777.606 55.532C775.793 54.6707 773.957 53.9227 772.098 53.288C770.285 52.6533 768.494 52.336 766.726 52.336Z" fill="white"/>
</g>
<defs>
<filter id="filter0_d_1_9" x="118.756" y="41.32" width="666.182" height="60.36" filterUnits="userSpaceOnUse" color-interpolation-filters="sRGB">
<feFlood flood-opacity="0" result="BackgroundImageFix"/>
<feColorMatrix in="SourceAlpha" type="matrix" values="0 0 0 0 0 0 0 0 0 0 0 0 0 0 0 0 0 0 127 0" result="hardAlpha"/>
<feOffset dy="4"/>
<feGaussianBlur stdDeviation="2"/>
<feComposite in2="hardAlpha" operator="out"/>
<feColorMatrix type="matrix" values="0 0 0 0 0 0 0 0 0 0 0 0 0 0 0 0 0 0 0.25 0"/>
<feBlend mode="normal" in2="BackgroundImageFix" result="effect1_dropShadow_1_9"/>
<feBlend mode="normal" in="SourceGraphic" in2="effect1_dropShadow_1_9" result="shape"/>
</filter>
</defs>
</svg>
