<svg width="903" height="143" viewBox="0 0 903 143" fill="none" xmlns="http://www.w3.org/2000/svg">
<rect x="314" width="70" height="143" fill="black"/>
<rect x="526" width="70" height="143" fill="#0502FD"/>
<rect x="420" width="70" height="143" fill="#E61F02"/>
<g filter="url(#filter0_d_1_9)">
<path d="M67.2575 93H56.9895V53.016H43.7975V44.448H80.4495V53.016H67.2575V93ZM97.2524 51.86C97.2524 53.6733 97.1844 55.4187 97.0484 57.096C96.9577 58.7733 96.8671 59.952 96.7764 60.632H97.3204C98.1364 59.3627 99.0884 58.3427 100.176 57.572C101.264 56.756 102.466 56.1667 103.78 55.804C105.14 55.396 106.568 55.192 108.064 55.192C110.739 55.192 113.074 55.668 115.068 56.62C117.063 57.572 118.604 59.0453 119.692 61.04C120.826 63.0347 121.392 65.6187 121.392 68.792V93H111.26V71.308C111.26 68.6333 110.762 66.6387 109.764 65.324C108.812 63.964 107.316 63.284 105.276 63.284C103.236 63.284 101.627 63.76 100.448 64.712C99.3151 65.664 98.4991 67.0467 98.0004 68.86C97.5017 70.6733 97.2524 72.8947 97.2524 75.524V93H87.1204V41.32H97.2524V51.86ZM152.552 55.192C153.05 55.192 153.64 55.2147 154.32 55.26C155 55.3053 155.544 55.3733 155.952 55.464L155.204 64.984C154.886 64.8933 154.41 64.8253 153.776 64.78C153.186 64.6893 152.665 64.644 152.212 64.644C150.897 64.644 149.628 64.8253 148.404 65.188C147.18 65.5053 146.069 66.0267 145.072 66.752C144.12 67.4773 143.349 68.452 142.76 69.676C142.216 70.8547 141.944 72.328 141.944 74.096V93H131.812V55.872H139.496L140.992 62.128H141.468C142.193 60.8587 143.1 59.7027 144.188 58.66C145.276 57.6173 146.522 56.7787 147.928 56.144C149.378 55.5093 150.92 55.192 152.552 55.192ZM176.663 55.192C180.108 55.192 183.055 55.8493 185.503 57.164C187.996 58.4787 189.923 60.3827 191.283 62.876C192.643 65.3693 193.323 68.4293 193.323 72.056V76.952H169.387C169.477 79.808 170.316 82.052 171.903 83.684C173.535 85.316 175.779 86.132 178.635 86.132C181.037 86.132 183.213 85.9053 185.163 85.452C187.112 84.9533 189.129 84.2053 191.215 83.208V91.028C189.401 91.9347 187.475 92.592 185.435 93C183.44 93.4533 181.015 93.68 178.159 93.68C174.441 93.68 171.155 93 168.299 91.64C165.443 90.2347 163.199 88.1267 161.567 85.316C159.935 82.5053 159.119 78.9693 159.119 74.708C159.119 70.356 159.844 66.752 161.295 63.896C162.791 60.9947 164.853 58.8187 167.483 57.368C170.112 55.9173 173.172 55.192 176.663 55.192ZM176.731 62.4C174.781 62.4 173.149 63.0347 171.835 64.304C170.565 65.5733 169.817 67.5453 169.591 70.22H183.803C183.803 68.724 183.531 67.3867 182.987 66.208C182.488 65.0293 181.717 64.1 180.675 63.42C179.632 62.74 178.317 62.4 176.731 62.4ZM216.838 55.192C220.284 55.192 223.23 55.8493 225.678 57.164C228.172 58.4787 230.098 60.3827 231.458 62.876C232.818 65.3693 233.498 68.4293 233.498 72.056V76.952H209.562C209.653 79.808 210.492 82.052 212.078 83.684C213.71 85.316 215.954 86.132 218.81 86.132C221.213 86.132 223.389 85.9053 225.338 85.452C227.288 84.9533 229.305 84.2053 231.39 83.208V91.028C229.577 91.9347 227.65 92.592 225.61 93C223.616 93.4533 221.19 93.68 218.334 93.68C214.617 93.68 211.33 93 208.474 91.64C205.618 90.2347 203.374 88.1267 201.742 85.316C200.11 82.5053 199.294 78.9693 199.294 74.708C199.294 70.356 200.02 66.752 201.47 63.896C202.966 60.9947 205.029 58.8187 207.658 57.368C210.288 55.9173 213.348 55.192 216.838 55.192ZM216.906 62.4C214.957 62.4 213.325 63.0347 212.01 64.304C210.741 65.5733 209.993 67.5453 209.766 70.22H223.978C223.978 68.724 223.706 67.3867 223.162 66.208C222.664 65.0293 221.893 64.1 220.85 63.42C219.808 62.74 218.493 62.4 216.906 62.4ZM275.698 44.448C281.954 44.448 286.51 45.808 289.366 48.528C292.268 51.2027 293.718 54.8973 293.718 59.612C293.718 61.7427 293.401 63.7827 292.766 65.732C292.132 67.636 291.066 69.3587 289.57 70.9C288.12 72.396 286.193 73.5747 283.79 74.436C281.388 75.2973 278.418 75.728 274.882 75.728H270.462V93H260.194V44.448H275.698ZM275.154 52.88H270.462V67.296H273.862C275.812 67.296 277.489 67.0467 278.894 66.548C280.3 66.0493 281.388 65.256 282.158 64.168C282.929 63.08 283.314 61.6747 283.314 59.952C283.314 57.5493 282.657 55.7813 281.342 54.648C280.028 53.4693 277.965 52.88 275.154 52.88ZM312.209 51.86C312.209 53.6733 312.141 55.4187 312.005 57.096C311.915 58.7733 311.824 59.952 311.733 60.632H312.277C313.093 59.3627 314.045 58.3427 315.133 57.572C316.221 56.756 317.423 56.1667 318.737 55.804C320.097 55.396 321.525 55.192 323.021 55.192C325.696 55.192 328.031 55.668 330.025 56.62C332.02 57.572 333.561 59.0453 334.649 61.04C335.783 63.0347 336.349 65.6187 336.349 68.792V93H326.217V71.308C326.217 68.6333 325.719 66.6387 324.721 65.324C323.769 63.964 322.273 63.284 320.233 63.284C318.193 63.284 316.584 63.76 315.405 64.712C314.272 65.664 313.456 67.0467 312.957 68.86C312.459 70.6733 312.209 72.8947 312.209 75.524V93H302.077V41.32H312.209V51.86ZM362.001 55.124C366.988 55.124 370.796 56.212 373.425 58.388C376.1 60.5187 377.437 63.8053 377.437 68.248V93H370.365L368.393 87.968H368.121C367.078 89.2827 365.99 90.3707 364.857 91.232C363.769 92.0933 362.5 92.7053 361.049 93.068C359.644 93.476 357.898 93.68 355.813 93.68C353.637 93.68 351.665 93.272 349.897 92.456C348.174 91.5947 346.814 90.3027 345.817 88.58C344.82 86.812 344.321 84.5907 344.321 81.916C344.321 77.972 345.704 75.0707 348.469 73.212C351.234 71.308 355.382 70.2653 360.913 70.084L367.373 69.88V68.248C367.373 66.2987 366.852 64.8707 365.809 63.964C364.812 63.0573 363.406 62.604 361.593 62.604C359.78 62.604 358.012 62.876 356.289 63.42C354.566 63.9187 352.844 64.5533 351.121 65.324L347.789 58.456C349.784 57.4133 351.982 56.5973 354.385 56.008C356.833 55.4187 359.372 55.124 362.001 55.124ZM363.429 75.932C360.165 76.0227 357.898 76.612 356.629 77.7C355.36 78.788 354.725 80.216 354.725 81.984C354.725 83.5253 355.178 84.636 356.085 85.316C356.992 85.9507 358.17 86.268 359.621 86.268C361.797 86.268 363.633 85.6333 365.129 84.364C366.625 83.0493 367.373 81.2133 367.373 78.856V75.796L363.429 75.932ZM413.716 81.984C413.716 84.4773 413.127 86.608 411.948 88.376C410.769 90.0987 409.001 91.4133 406.644 92.32C404.287 93.2267 401.363 93.68 397.872 93.68C395.288 93.68 393.067 93.4987 391.208 93.136C389.349 92.8187 387.491 92.2747 385.632 91.504V83.14C387.627 84.0467 389.78 84.7947 392.092 85.384C394.404 85.9733 396.444 86.268 398.212 86.268C400.207 86.268 401.612 85.9733 402.428 85.384C403.289 84.7947 403.72 84.024 403.72 83.072C403.72 82.4373 403.539 81.8707 403.176 81.372C402.859 80.8733 402.133 80.3067 401 79.672C399.867 79.0373 398.099 78.2213 395.696 77.224C393.384 76.2267 391.48 75.252 389.984 74.3C388.488 73.3027 387.377 72.124 386.652 70.764C385.927 69.3587 385.564 67.6133 385.564 65.528C385.564 62.0827 386.901 59.4987 389.576 57.776C392.251 56.0533 395.809 55.192 400.252 55.192C402.564 55.192 404.763 55.4187 406.848 55.872C408.933 56.3253 411.087 57.0733 413.308 58.116L410.248 65.392C409.024 64.848 407.845 64.372 406.712 63.964C405.579 63.556 404.468 63.2387 403.38 63.012C402.337 62.7853 401.249 62.672 400.116 62.672C398.62 62.672 397.487 62.876 396.716 63.284C395.991 63.692 395.628 64.304 395.628 65.12C395.628 65.7093 395.809 66.2533 396.172 66.752C396.58 67.2053 397.328 67.704 398.416 68.248C399.549 68.792 401.204 69.5173 403.38 70.424C405.511 71.2853 407.347 72.192 408.888 73.144C410.429 74.0507 411.608 75.2067 412.424 76.612C413.285 77.972 413.716 79.7627 413.716 81.984ZM436.909 55.192C440.354 55.192 443.301 55.8493 445.749 57.164C448.242 58.4787 450.169 60.3827 451.529 62.876C452.889 65.3693 453.569 68.4293 453.569 72.056V76.952H429.633C429.723 79.808 430.562 82.052 432.149 83.684C433.781 85.316 436.025 86.132 438.881 86.132C441.283 86.132 443.459 85.9053 445.409 85.452C447.358 84.9533 449.375 84.2053 451.461 83.208V91.028C449.647 91.9347 447.721 92.592 445.681 93C443.686 93.4533 441.261 93.68 438.405 93.68C434.687 93.68 431.401 93 428.545 91.64C425.689 90.2347 423.445 88.1267 421.813 85.316C420.181 82.5053 419.365 78.9693 419.365 74.708C419.365 70.356 420.09 66.752 421.541 63.896C423.037 60.9947 425.099 58.8187 427.729 57.368C430.358 55.9173 433.418 55.192 436.909 55.192ZM436.977 62.4C435.027 62.4 433.395 63.0347 432.081 64.304C430.811 65.5733 430.063 67.5453 429.837 70.22H444.049C444.049 68.724 443.777 67.3867 443.233 66.208C442.734 65.0293 441.963 64.1 440.921 63.42C439.878 62.74 438.563 62.4 436.977 62.4ZM508.213 93H480.265V44.448H508.213V52.88H490.533V63.556H506.989V71.988H490.533V84.5H508.213V93ZM527.631 93H517.499V41.32H527.631V93ZM553.518 55.192C556.963 55.192 559.91 55.8493 562.358 57.164C564.851 58.4787 566.778 60.3827 568.138 62.876C569.498 65.3693 570.178 68.4293 570.178 72.056V76.952H546.242C546.333 79.808 547.171 82.052 548.758 83.684C550.39 85.316 552.634 86.132 555.49 86.132C557.893 86.132 560.069 85.9053 562.018 85.452C563.967 84.9533 565.985 84.2053 568.07 83.208V91.028C566.257 91.9347 564.33 92.592 562.29 93C560.295 93.4533 557.87 93.68 555.014 93.68C551.297 93.68 548.01 93 545.154 91.64C542.298 90.2347 540.054 88.1267 538.422 85.316C536.79 82.5053 535.974 78.9693 535.974 74.708C535.974 70.356 536.699 66.752 538.15 63.896C539.646 60.9947 541.709 58.8187 544.338 57.368C546.967 55.9173 550.027 55.192 553.518 55.192ZM553.586 62.4C551.637 62.4 550.005 63.0347 548.69 64.304C547.421 65.5733 546.673 67.5453 546.446 70.22H560.658C560.658 68.724 560.386 67.3867 559.842 66.208C559.343 65.0293 558.573 64.1 557.53 63.42C556.487 62.74 555.173 62.4 553.586 62.4ZM593.49 93.68C589.818 93.68 586.69 93.0227 584.106 91.708C581.522 90.348 579.55 88.2627 578.19 85.452C576.83 82.6413 576.15 79.0373 576.15 74.64C576.15 70.1067 576.921 66.412 578.462 63.556C580.003 60.7 582.134 58.592 584.854 57.232C587.619 55.872 590.793 55.192 594.374 55.192C596.913 55.192 599.111 55.4413 600.97 55.94C602.874 56.4387 604.529 57.028 605.934 57.708L602.942 65.528C601.355 64.8933 599.859 64.372 598.454 63.964C597.094 63.556 595.734 63.352 594.374 63.352C592.606 63.352 591.133 63.7827 589.954 64.644C588.775 65.46 587.891 66.7067 587.302 68.384C586.758 70.016 586.486 72.0787 586.486 74.572C586.486 77.02 586.781 79.06 587.37 80.692C588.005 82.2787 588.911 83.48 590.09 84.296C591.269 85.0667 592.697 85.452 594.374 85.452C596.505 85.452 598.386 85.18 600.018 84.636C601.65 84.0467 603.237 83.2533 604.778 82.256V90.892C603.237 91.8893 601.605 92.592 599.882 93C598.205 93.4533 596.074 93.68 593.49 93.68ZM628.964 85.588C630.097 85.588 631.185 85.4747 632.228 85.248C633.27 85.0213 634.313 84.7493 635.356 84.432V91.98C634.268 92.4333 632.908 92.8187 631.276 93.136C629.689 93.4987 627.944 93.68 626.04 93.68C623.818 93.68 621.824 93.3173 620.056 92.592C618.333 91.8667 616.95 90.62 615.908 88.852C614.91 87.0387 614.412 84.5453 614.412 81.372V63.488H609.584V59.204L615.16 55.804L618.084 47.984H624.544V55.872H634.948V63.488H624.544V81.372C624.544 82.7773 624.952 83.8427 625.768 84.568C626.584 85.248 627.649 85.588 628.964 85.588ZM663.548 55.192C664.047 55.192 664.636 55.2147 665.316 55.26C665.996 55.3053 666.54 55.3733 666.948 55.464L666.2 64.984C665.883 64.8933 665.407 64.8253 664.772 64.78C664.183 64.6893 663.661 64.644 663.208 64.644C661.893 64.644 660.624 64.8253 659.4 65.188C658.176 65.5053 657.065 66.0267 656.068 66.752C655.116 67.4773 654.345 68.452 653.756 69.676C653.212 70.8547 652.94 72.328 652.94 74.096V93H642.808V55.872H650.492L651.988 62.128H652.464C653.189 60.8587 654.096 59.7027 655.184 58.66C656.272 57.6173 657.519 56.7787 658.924 56.144C660.375 55.5093 661.916 55.192 663.548 55.192ZM683.819 55.872V93H673.687V55.872H683.819ZM678.787 41.32C680.283 41.32 681.575 41.6827 682.663 42.408C683.751 43.088 684.295 44.38 684.295 46.284C684.295 48.1427 683.751 49.4347 682.663 50.16C681.575 50.8853 680.283 51.248 678.787 51.248C677.245 51.248 675.931 50.8853 674.843 50.16C673.8 49.4347 673.279 48.1427 673.279 46.284C673.279 44.38 673.8 43.088 674.843 42.408C675.931 41.6827 677.245 41.32 678.787 41.32ZM709.502 93.68C705.83 93.68 702.702 93.0227 700.118 91.708C697.534 90.348 695.562 88.2627 694.202 85.452C692.842 82.6413 692.162 79.0373 692.162 74.64C692.162 70.1067 692.932 66.412 694.474 63.556C696.015 60.7 698.146 58.592 700.866 57.232C703.631 55.872 706.804 55.192 710.386 55.192C712.924 55.192 715.123 55.4413 716.982 55.94C718.886 56.4387 720.54 57.028 721.946 57.708L718.954 65.528C717.367 64.8933 715.871 64.372 714.466 63.964C713.106 63.556 711.746 63.352 710.386 63.352C708.618 63.352 707.144 63.7827 705.966 64.644C704.787 65.46 703.903 66.7067 703.314 68.384C702.77 70.016 702.498 72.0787 702.498 74.572C702.498 77.02 702.792 79.06 703.382 80.692C704.016 82.2787 704.923 83.48 706.102 84.296C707.28 85.0667 708.708 85.452 710.386 85.452C712.516 85.452 714.398 85.18 716.03 84.636C717.662 84.0467 719.248 83.2533 720.79 82.256V90.892C719.248 91.8893 717.616 92.592 715.894 93C714.216 93.4533 712.086 93.68 709.502 93.68ZM747.815 93V44.448H758.083V84.5H777.803V93H747.815ZM786.265 93V44.448H796.533V84.5H816.253V93H786.265ZM843.99 52.336C842.04 52.336 840.295 52.7213 838.754 53.492C837.258 54.2627 835.988 55.3733 834.946 56.824C833.903 58.2293 833.11 59.952 832.566 61.992C832.067 64.032 831.818 66.3213 831.818 68.86C831.818 72.3053 832.226 75.252 833.042 77.7C833.903 80.1027 835.24 81.9387 837.054 83.208C838.867 84.4773 841.179 85.112 843.99 85.112C845.984 85.112 847.956 84.8853 849.906 84.432C851.9 83.9787 854.054 83.344 856.366 82.528V91.164C854.235 92.0253 852.127 92.66 850.042 93.068C847.956 93.476 845.622 93.68 843.038 93.68C838.051 93.68 833.926 92.66 830.662 90.62C827.443 88.5347 825.063 85.6333 823.522 81.916C821.98 78.1533 821.21 73.7787 821.21 68.792C821.21 65.12 821.708 61.7653 822.706 58.728C823.703 55.6453 825.154 52.9933 827.058 50.772C829.007 48.5507 831.387 46.828 834.198 45.604C837.054 44.38 840.318 43.768 843.99 43.768C846.392 43.768 848.795 44.0853 851.198 44.72C853.646 45.3093 855.98 46.1253 858.202 47.168L854.87 55.532C853.056 54.6707 851.22 53.9227 849.362 53.288C847.548 52.6533 845.758 52.336 843.99 52.336Z" fill="white"/>
</g>
<defs>
<filter id="filter0_d_1_9" x="39.7975" y="41.32" width="822.404" height="60.36" filterUnits="userSpaceOnUse" color-interpolation-filters="sRGB">
<feFlood flood-opacity="0" result="BackgroundImageFix"/>
<feColorMatrix in="SourceAlpha" type="matrix" values="0 0 0 0 0 0 0 0 0 0 0 0 0 0 0 0 0 0 127 0" result="hardAlpha"/>
<feOffset dy="4"/>
<feGaussianBlur stdDeviation="2"/>
<feComposite in2="hardAlpha" operator="out"/>
<feColorMatrix type="matrix" values="0 0 0 0 0 0 0 0 0 0 0 0 0 0 0 0 0 0 0.25 0"/>
<feBlend mode="normal" in2="BackgroundImageFix" result="effect1_dropShadow_1_9"/>
<feBlend mode="normal" in="SourceGraphic" in2="effect1_dropShadow_1_9" result="shape"/>
</filter>
</defs>
</svg>
